<svg width="18" height="18" viewBox="0 0 18 18" fill="none" xmlns="http://www.w3.org/2000/svg">
<path d="M7.5 13.5C8.83123 13.4997 10.1241 13.0541 11.1728 12.234L14.4697 15.531L15.5303 14.4705L12.2333 11.1735C13.0538 10.1247 13.4997 8.83158 13.5 7.5C13.5 4.19175 10.8082 1.5 7.5 1.5C4.19175 1.5 1.5 4.19175 1.5 7.5C1.5 10.8082 4.19175 13.5 7.5 13.5ZM7.5 3C9.98175 3 12 5.01825 12 7.5C12 9.98175 9.98175 12 7.5 12C5.01825 12 3 9.98175 3 7.5C3 5.01825 5.01825 3 7.5 3Z" fill="#45B3CB"/>
<path d="M8.55893 6.43932C8.84318 6.72432 8.99993 7.10082 8.99993 7.49982H10.4999C10.5006 7.10564 10.4231 6.71524 10.272 6.35118C10.1209 5.98713 9.89907 5.65664 9.61943 5.37882C8.48393 4.24482 6.51518 4.24482 5.38043 5.37882L6.43943 6.44082C7.00943 5.87232 7.99193 5.87382 8.55893 6.43932Z" fill="#45B3CB"/>
</svg>
