<svg width="26" height="30" viewBox="0 0 26 30" fill="none" xmlns="http://www.w3.org/2000/svg">
<path d="M5.6875 14.0625H21.9375C22.153 14.0625 22.3597 14.1613 22.512 14.3371C22.6644 14.5129 22.75 14.7514 22.75 15C22.75 15.2486 22.6644 15.4871 22.512 15.6629C22.3597 15.8387 22.153 15.9375 21.9375 15.9375H5.6875C5.47201 15.9375 5.26535 15.8387 5.11298 15.6629C4.9606 15.4871 4.875 15.2486 4.875 15C4.875 14.7514 4.9606 14.5129 5.11298 14.3371C5.26535 14.1613 5.47201 14.0625 5.6875 14.0625Z" fill="black"/>
<path d="M6.02386 15.0002L12.7627 22.774C12.9153 22.95 13.001 23.1888 13.001 23.4377C13.001 23.6867 12.9153 23.9254 12.7627 24.1015C12.6102 24.2775 12.4032 24.3764 12.1875 24.3764C11.9717 24.3764 11.7648 24.2775 11.6122 24.1015L4.29974 15.664C4.22407 15.5769 4.16404 15.4734 4.12308 15.3595C4.08212 15.2456 4.06104 15.1235 4.06104 15.0002C4.06104 14.8769 4.08212 14.7548 4.12308 14.6409C4.16404 14.527 4.22407 14.4235 4.29974 14.3365L11.6122 5.89896C11.7648 5.72292 11.9717 5.62402 12.1875 5.62402C12.4032 5.62402 12.6102 5.72292 12.7627 5.89896C12.9153 6.07499 13.001 6.31375 13.001 6.56271C13.001 6.81166 12.9153 7.05042 12.7627 7.22646L6.02386 15.0002Z" fill="black"/>
</svg>
