<svg width="43" height="44" viewBox="0 0 43 44" fill="none" xmlns="http://www.w3.org/2000/svg">
<g clip-path="url(#clip0_231_946)">
<path d="M22.7069 3.5H7.11782C6.26042 3.5 5.55891 4.19859 5.55891 5.05242C5.55891 5.90625 6.26042 6.60484 7.11782 6.60484H22.7069C23.5643 6.60484 24.2658 5.90625 24.2658 5.05242C24.2658 4.19859 23.5643 3.5 22.7069 3.5ZM22.7069 8.15726H7.11782C5.40302 8.15726 4 9.55444 4 11.2621V28.3387C4 30.0464 5.40302 31.4435 7.11782 31.4435H22.7069C24.4217 31.4435 25.8247 30.0464 25.8247 28.3387V11.2621C25.8247 9.55444 24.4217 8.15726 22.7069 8.15726ZM18.8096 22.129H17.2507V23.6815C17.2507 24.97 16.2063 26.0101 14.9124 26.0101C13.6185 26.0101 12.574 24.97 12.574 23.6815V22.129H11.0151C9.72119 22.129 8.67672 21.0889 8.67672 19.8004C8.67672 18.5119 9.72119 17.4718 11.0151 17.4718H12.574V15.9194C12.574 14.6308 13.6185 13.5907 14.9124 13.5907C16.2063 13.5907 17.2507 14.6308 17.2507 15.9194V17.4718H18.8096C20.1035 17.4718 21.148 18.5119 21.148 19.8004C21.148 21.0889 20.1035 22.129 18.8096 22.129Z" fill="#F7F7F7"/>
<path fill-rule="evenodd" clip-rule="evenodd" d="M15.1772 28.2199C12.3551 29.6161 11.206 33.0289 12.6106 35.8426C14.0152 38.656 17.4414 39.805 20.2634 38.4089L33.8637 31.6805C36.6858 30.2843 37.8349 26.8714 36.4303 24.0578C35.0257 21.2443 31.5995 20.0953 28.7775 21.4914L15.1772 28.2199ZM15.2236 34.5493C14.5374 33.1747 15.0987 31.5075 16.4775 30.8254L21.9091 28.1383L24.394 33.1166L18.9632 35.8034C17.5842 36.4855 15.9099 35.9241 15.2236 34.5493ZM27.1322 31.7619L24.6473 26.7836L30.0778 24.097C31.4567 23.4148 33.131 23.9763 33.8173 25.3511C34.5036 26.7256 33.9422 28.3928 32.5635 29.0749L27.1322 31.7619Z" fill="#F7F7F7"/>
</g>
<defs>
<clipPath id="clip0_231_946">
<rect width="35" height="37.2581" fill="white" transform="translate(4 3.5)"/>
</clipPath>
</defs>
</svg>
