<svg width="43" height="44" viewBox="0 0 43 44" fill="none" xmlns="http://www.w3.org/2000/svg">
<path fill-rule="evenodd" clip-rule="evenodd" d="M10.5539 7.53134C12.5359 6.44403 14.7602 5.87434 17.0208 5.875C19.0249 5.87658 21.0031 6.32638 22.8108 7.19145C24.6185 8.05652 26.2098 9.31496 27.4682 10.8746C28.7266 12.4343 29.6202 14.2556 30.0836 16.2053C30.547 18.155 30.5684 20.1837 30.1463 22.1427C29.7242 24.1018 28.8693 25.9416 27.6441 27.5275C26.419 29.1134 24.8546 30.4052 23.0656 31.3083C21.2766 32.2114 19.3083 32.7028 17.3048 32.7468C15.3012 32.7907 13.3132 32.3859 11.4864 31.5621C9.23247 32.0817 6.80476 32.5296 5.68855 32.7267C5.40329 32.7777 5.10991 32.7584 4.83377 32.6706C4.55762 32.5828 4.30702 32.429 4.10362 32.2226C3.90022 32.0162 3.75015 31.7634 3.66637 31.486C3.58258 31.2086 3.56762 30.9149 3.62276 30.6305C3.98511 28.7446 4.39193 26.8677 4.84288 25.001C3.88587 22.9529 3.46104 20.6965 3.60773 18.4406C3.75441 16.1847 4.46787 14.0023 5.68205 12.0954C6.89622 10.1884 8.57188 8.61865 10.5539 7.53134ZM26.0903 38.125C22.7006 38.1302 19.4352 36.8497 16.9528 34.5417C18.269 34.5579 19.5819 34.4037 20.8586 34.083C22.4579 34.9746 24.2592 35.4409 26.0903 35.4375C27.8103 35.4375 29.4335 35.0344 30.874 34.3177L31.3094 34.1009L31.7824 34.212C33.4343 34.6062 35.3048 35.0129 36.6915 35.3049C36.378 33.9612 35.9498 32.1605 35.5413 30.557L35.4159 30.0625L35.6488 29.6092C36.4103 28.1365 36.8403 26.4648 36.8403 24.6875C36.8412 22.8902 36.3911 21.1214 35.5312 19.5432C34.6714 17.9649 33.4292 16.6277 31.9186 15.6539C31.6028 14.3735 31.1209 13.14 30.4852 11.9846C32.2641 12.6004 33.8938 13.583 35.2688 14.8688C36.6438 16.1545 37.7334 17.7147 38.4671 19.4483C39.2008 21.1819 39.5622 23.0502 39.528 24.9324C39.4937 26.8145 39.0645 28.6685 38.2682 30.3743C38.7215 32.1803 39.1802 34.1367 39.4704 35.3963C39.5555 35.7612 39.5472 36.1417 39.4464 36.5025C39.3455 36.8634 39.1553 37.193 38.8933 37.4609C38.6313 37.7288 38.306 37.9263 37.9475 38.0351C37.5889 38.144 37.2088 38.1608 36.842 38.0838C35.5395 37.8115 33.4916 37.3743 31.6229 36.9371C29.9334 37.7004 28.0611 38.125 26.0903 38.125ZM13.0745 22.7432C12.5222 22.7432 12.0745 23.1909 12.0745 23.7432C12.0745 24.2954 12.5222 24.7432 13.0745 24.7432H20.6286C21.1809 24.7432 21.6286 24.2954 21.6286 23.7432C21.6286 23.1909 21.1809 22.7432 20.6286 22.7432H13.0745ZM8.29742 19.0942C8.29742 18.542 8.74514 18.0942 9.29742 18.0942H24.4055C24.9578 18.0942 25.4055 18.542 25.4055 19.0942C25.4055 19.6465 24.9578 20.0942 24.4055 20.0942H9.29742C8.74514 20.0942 8.29742 19.6465 8.29742 19.0942ZM13.0745 13.4458C12.5222 13.4458 12.0745 13.8935 12.0745 14.4458C12.0745 14.9981 12.5222 15.4458 13.0745 15.4458H20.6286C21.1809 15.4458 21.6286 14.9981 21.6286 14.4458C21.6286 13.8935 21.1809 13.4458 20.6286 13.4458H13.0745Z" fill="#F7F7F7"/>
</svg>
