<svg width="43" height="42" viewBox="0 0 43 42" fill="none" xmlns="http://www.w3.org/2000/svg">
<g clip-path="url(#clip0_231_1002)">
<path fill-rule="evenodd" clip-rule="evenodd" d="M7.5 20.6248C7.5 16.2287 10.9986 11.0248 17.9828 5C21.796 8.28948 24.5702 11.3342 26.3033 14.1364C25.0677 14.4967 23.9302 15.1635 23.0037 16.0899C21.5552 17.5385 20.7414 19.5032 20.7414 21.5517C20.7414 24.6633 22.5831 27.3486 25.2394 28.5737C23.3115 30.4345 20.7115 31.4828 17.9828 31.4828C12.4793 31.4828 7.5 27.219 7.5 20.6248ZM27.537 16.4867C28.1559 17.9378 28.4655 19.317 28.4655 20.6248C28.4655 22.865 27.8909 24.8361 26.9163 26.4626C26.1342 26.2158 25.4149 25.7835 24.8243 25.1929C23.8586 24.2272 23.3161 22.9174 23.3161 21.5517C23.3161 20.186 23.8586 18.8762 24.8243 17.9105C25.5683 17.1666 26.5164 16.6738 27.537 16.4867ZM13.4883 21.7106C13.3966 21.2339 13.0034 20.8897 12.5186 20.8897C12.3763 20.8897 12.2357 20.921 12.1065 20.9814C11.9773 21.0418 11.8627 21.1298 11.7705 21.2393C11.6783 21.3489 11.6107 21.4774 11.5725 21.6159C11.5342 21.7544 11.5262 21.8997 11.549 22.0417C12.2959 26.0538 15.5586 27.6692 18.3497 27.4971C18.8738 27.4706 19.2931 27.0337 19.2931 26.504C19.2931 25.9346 18.8214 25.4844 18.2579 25.5109C16.4759 25.6566 14.0255 24.6502 13.4883 21.7106Z" fill="#45B3CB"/>
<path d="M28.4655 13.8276C30.5141 13.8276 32.4788 14.6414 33.9273 16.09C35.3759 17.5385 36.1897 19.5032 36.1897 21.5518C36.1897 25.3752 33.409 28.555 29.7529 29.1729V31.8506H32.3276V34.4253H29.7529V37H27.1782V34.4253H24.6035V31.8506H27.1782V29.1729C23.5221 28.555 20.7414 25.3752 20.7414 21.5518C20.7414 19.5032 21.5552 17.5385 23.0037 16.09C24.4523 14.6414 26.417 13.8276 28.4655 13.8276ZM28.4655 16.4023C27.0998 16.4023 25.79 16.9449 24.8243 17.9106C23.8586 18.8763 23.3161 20.1861 23.3161 21.5518C23.3161 22.9175 23.8586 24.2273 24.8243 25.193C25.79 26.1587 27.0998 26.7012 28.4655 26.7012C29.8312 26.7012 31.141 26.1587 32.1067 25.193C33.0724 24.2273 33.615 22.9175 33.615 21.5518C33.615 20.1861 33.0724 18.8763 32.1067 17.9106C31.141 16.9449 29.8312 16.4023 28.4655 16.4023Z" fill="#45B3CB"/>
</g>
<defs>
<clipPath id="clip0_231_1002">
<rect width="28.6897" height="32" fill="white" transform="translate(7.5 5)"/>
</clipPath>
</defs>
</svg>
