<svg width="43" height="42" viewBox="0 0 43 42" fill="none" xmlns="http://www.w3.org/2000/svg">
<path fill-rule="evenodd" clip-rule="evenodd" d="M33.9488 10.0594C34.7985 10.8905 35.478 11.8792 35.9492 12.9703C36.4379 14.1059 36.6875 15.3117 36.684 16.5528C36.684 17.7235 36.4449 18.9434 35.9703 20.1844C35.8842 20.4112 35.7895 20.6399 35.6865 20.8701C35.5648 20.7921 35.42 20.7469 35.2647 20.7469H30.2151L28.122 19.2978C27.915 19.1545 27.6517 19.1195 27.4145 19.2038C27.1773 19.2881 26.9951 19.4813 26.9249 19.723L26.1749 22.3066L24.2038 13.7653C24.1236 13.4179 23.8188 13.1685 23.4624 13.1589C23.106 13.1493 22.7881 13.3818 22.6893 13.7243L20.7402 20.4811L19.7719 17.5761C19.6654 17.2565 19.3663 17.041 19.0295 17.041C18.6926 17.041 18.3935 17.2565 18.287 17.5761L17.4007 20.235C17.2689 20.0223 17.0393 19.8801 16.7786 19.8657C16.4263 19.8462 16.1045 20.0649 15.9929 20.3996L15.168 22.8743L14.1504 17.6733C14.0856 17.3419 13.8155 17.0895 13.4804 17.0471C13.1454 17.0048 12.821 17.1822 12.6758 17.4871L11.1236 20.7469H7.25685C7.17445 20.5582 7.09753 20.3707 7.02617 20.1844C6.55156 18.9434 6.3125 17.7235 6.3125 16.5528C6.3125 15.3117 6.56211 14.1059 7.05078 12.9703C7.52074 11.8785 8.20038 10.8895 9.05117 10.0594C9.90547 9.22268 10.9004 8.56526 12.0043 8.10823C13.1469 7.63362 14.3562 7.39456 15.6043 7.39456C17.3375 7.39456 19.0285 7.86917 20.498 8.76565C20.8496 8.9801 21.1836 9.21565 21.5 9.47229C21.8164 9.21565 22.1504 8.9801 22.502 8.76565C23.9715 7.86917 25.6625 7.39456 27.3957 7.39456C28.6311 7.39171 29.8548 7.6343 30.9957 8.10823C32.096 8.56347 33.0985 9.22587 33.9488 10.0594ZM8.05213 22.3121C8.25741 22.6674 8.48043 23.025 8.7207 23.3836C9.87383 25.1028 11.4594 26.8957 13.4281 28.7133C16.6906 31.7262 19.9215 33.8074 20.0586 33.8918L20.8918 34.4262C21.2609 34.6617 21.7355 34.6617 22.1047 34.4262L22.9379 33.8918C23.075 33.8039 26.3023 31.7262 29.5684 28.7133C31.5371 26.8957 33.1227 25.1028 34.2758 23.3836C34.5161 23.025 34.7395 22.6674 34.9451 22.3121H29.9706C29.8114 22.3121 29.656 22.2635 29.5252 22.1729L28.125 21.2036L26.8399 25.63C26.7405 25.9722 26.4226 26.2041 26.0665 26.1941C25.7103 26.1842 25.4058 25.935 25.3257 25.5878L23.357 17.0568L21.5461 23.3346C21.4511 23.664 21.1529 23.8931 20.8102 23.9002C20.4675 23.9072 20.1601 23.6904 20.0517 23.3652L19.0295 20.2984L18.0072 23.3652C17.8956 23.7 17.5738 23.9186 17.2215 23.8991C16.9608 23.8847 16.7312 23.7425 16.5994 23.5298L15.7131 26.1887C15.6007 26.526 15.2751 26.7451 14.9204 26.7222C14.5656 26.6994 14.2708 26.4404 14.2026 26.0915L13.0696 20.3007L12.3243 21.8659C12.1945 22.1385 11.9196 22.3121 11.6177 22.3121H8.05213Z" fill="#45B3CB"/>
</svg>
