<svg width="43" height="42" viewBox="0 0 43 42" fill="none" xmlns="http://www.w3.org/2000/svg">
<path d="M25.814 7.58789C25.814 8.85352 25.3758 9.93164 24.4993 10.8223C23.6228 11.7129 22.5717 12.1582 21.3457 12.1582C20.1084 12.1582 19.0515 11.7129 18.175 10.8223C17.2985 9.93164 16.8603 8.85352 16.8603 7.58789C16.8603 6.33398 17.2985 5.25586 18.175 4.35352C19.0515 3.45117 20.1084 3 21.3457 3C22.5717 3 23.6228 3.45117 24.4993 4.35352C25.3758 5.25586 25.814 6.33398 25.814 7.58789ZM22.6175 12.8086C22.8352 12.8086 23.0271 12.8232 23.1932 12.8525C23.3593 12.8818 23.514 12.9463 23.6572 13.0459C23.8004 13.1455 23.915 13.2275 24.0009 13.292C24.0869 13.3564 24.1842 13.4824 24.2931 13.6699C24.4019 13.8574 24.4821 13.998 24.5337 14.0918C24.5852 14.1855 24.6712 14.3672 24.7915 14.6367C24.9118 14.9062 25.0006 15.0996 25.0579 15.2168L25.5391 16.2891C25.6651 16.5586 25.9429 16.8574 26.3726 17.1855C26.8022 17.5137 27.2633 17.8535 27.756 18.2051C28.2487 18.5566 28.7384 18.958 29.2254 19.4092C29.7123 19.8604 30.1162 20.4258 30.437 21.1055C30.7578 21.7852 30.9182 22.5352 30.9182 23.3555C30.9182 24.3281 30.7348 25.2305 30.3682 26.0625C30.0016 26.8945 29.5319 27.5332 28.959 27.9785V29.8066C28.959 30.2754 28.8817 30.6094 28.727 30.8086C28.5723 31.0078 28.2315 31.1074 27.7044 31.1074H25.161V36.6973C25.161 37.3418 24.9547 37.8867 24.5423 38.332C24.1298 38.7773 23.6143 39 22.9956 39H19.6959C19.0887 39 18.5674 38.7744 18.132 38.3232C17.6967 37.8721 17.479 37.3301 17.479 36.6973V31.1074H16.465C16.1213 31.1074 15.8234 30.9785 15.5714 30.7207C15.3193 30.4629 15.1933 30.1582 15.1933 29.8066C15.1933 29.7129 15.2191 29.5898 15.2706 29.4375C15.3222 29.2852 15.3537 29.1855 15.3651 29.1387L17.479 20.7363V18.0293H16.5853L14.8839 25.0078C14.8152 25.3008 14.6204 25.5205 14.2996 25.667C13.9788 25.8135 13.6408 25.8867 13.2857 25.8867C12.7586 25.8867 12.3032 25.6934 11.9194 25.3066C11.5356 24.9199 11.3437 24.457 11.3437 23.918C11.3437 23.8008 11.3609 23.6807 11.3952 23.5576C11.4296 23.4346 11.4783 23.3027 11.5413 23.1621C11.6043 23.0215 11.6473 22.916 11.6702 22.8457L13.9903 14.9707C14.1851 14.3145 14.6233 13.79 15.305 13.3975C15.9867 13.0049 16.7113 12.8086 17.479 12.8086H22.6175ZM23.1502 21.1055C22.6003 21.1055 22.1707 21.3105 21.8613 21.7207C21.552 22.1309 21.3973 22.6465 21.3973 23.2676C21.4431 23.7715 21.678 24.2402 22.1019 24.6738L24.9376 27.5918L27.7388 24.6738C28.1742 24.2285 28.4148 23.7598 28.4606 23.2676C28.4606 22.6465 28.3002 22.1309 27.9794 21.7207C27.6586 21.3105 27.2232 21.1055 26.6733 21.1055C26.1234 21.1055 25.7023 21.2578 25.4102 21.5625C25.118 21.8672 24.9605 22.2715 24.9376 22.7754C24.9146 22.2715 24.7514 21.8672 24.4478 21.5625C24.1441 21.2578 23.7116 21.1055 23.1502 21.1055Z" fill="#45B3CB"/>
</svg>
