<svg width="375" height="370" viewBox="0 0 375 370" fill="none" xmlns="http://www.w3.org/2000/svg">
<g style="mix-blend-mode:lighten">
<path fill-rule="evenodd" clip-rule="evenodd" d="M68.657 166.166C78.5493 168.335 73.8713 189.033 83.651 191.661C104.405 197.239 135.098 168.818 146.388 187.056C156.519 203.423 116.095 209.043 103.345 223.476C97.6635 229.907 97.5852 238.992 93.7357 246.655C85.7176 262.615 85.0085 285.254 68.657 292.524C52.8081 299.57 24.5338 296.21 19.5434 279.639C13.0349 258.027 51.4334 241.425 46.628 219.375C42.6268 201.014 -0.695098 208.774 0.00847589 189.998C0.625283 173.538 32.3582 189.251 47.9598 183.834C56.7523 180.782 59.5641 164.172 68.657 166.166Z" fill="url(#paint0_linear_235_366)" fill-opacity="0.12"/>
</g>
<g style="mix-blend-mode:lighten">
<path fill-rule="evenodd" clip-rule="evenodd" d="M186.868 141.859C190.983 138.69 197.191 137.722 199.167 132.925C206.364 115.462 194.358 84.248 212.642 79.3137C228.7 74.9799 225.058 108.828 231.094 124.309C233.481 130.431 234.085 136.769 237.283 142.513C241.918 150.836 259.484 157.42 253.764 165.016C247.052 173.931 228.572 155.901 221.016 164.117C209.583 176.55 224.469 203.19 210.251 212.336C199.759 219.084 191.586 197.122 181.809 189.335C172.404 181.844 152.844 179.544 154.114 167.626C155.621 153.479 175.586 150.549 186.868 141.859Z" fill="url(#paint1_linear_235_366)" fill-opacity="0.12"/>
</g>
<g style="mix-blend-mode:lighten">
<path fill-rule="evenodd" clip-rule="evenodd" d="M313.656 30.5528C326.954 40.0623 312.767 66.0363 324.917 76.9671C334.889 85.9394 353.398 68.1018 364.215 76.0409C374.116 83.3071 378.661 101.191 371.519 111.168C363.75 122.021 344.477 112.07 333.244 119.305C323.148 125.81 324.722 143.761 313.656 148.442C301.889 153.421 282.84 154.396 276.608 143.267C269.338 130.283 288.415 115.837 287.105 101.024C286.272 91.6039 272.378 87.9037 270.887 78.5649C268.952 66.4467 269.72 52.5135 277.893 43.3392C286.514 33.6612 303.107 23.0087 313.656 30.5528Z" fill="url(#paint2_linear_235_366)" fill-opacity="0.12"/>
</g>
<g style="mix-blend-mode:lighten">
<path fill-rule="evenodd" clip-rule="evenodd" d="M292.185 214.369C272.8 217.129 246.103 183.734 236.52 200.779C224.531 222.101 259.042 243.32 262.28 267.555C263.522 276.853 250.897 282.281 248.624 291.382C244.168 309.216 229.715 332.11 242.963 344.877C255.39 356.854 275.199 330.219 292.185 333.362C316.483 337.859 339.578 383.688 356.73 365.93C375.451 346.546 330.595 317.41 333.449 290.637C335.335 272.95 364.46 269.639 368.833 252.395C374.695 229.282 382.115 193.702 360.725 183.09C337.665 171.65 317.678 210.738 292.185 214.369Z" fill="url(#paint3_linear_235_366)" fill-opacity="0.12"/>
</g>
<g style="mix-blend-mode:lighten">
<path fill-rule="evenodd" clip-rule="evenodd" d="M79.656 2.55281C92.9536 12.0623 78.7672 38.0363 90.9166 48.9671C100.889 57.9394 119.398 40.1018 130.215 48.0409C140.116 55.3071 144.661 73.1912 137.519 83.1683C129.75 94.0209 110.477 84.0699 99.2445 91.3054C89.1477 97.8095 90.7216 115.761 79.656 120.442C67.8887 125.421 48.8397 126.396 42.6082 115.267C35.338 102.283 54.4145 87.8371 53.1047 73.0238C52.2717 63.6039 38.3783 59.9037 36.8869 50.5649C34.9518 38.4467 35.7205 24.5135 43.8929 15.3392C52.5141 5.66117 69.1067 -4.99128 79.656 2.55281Z" fill="url(#paint4_linear_235_366)" fill-opacity="0.12"/>
</g>
<defs>
<linearGradient id="paint0_linear_235_366" x1="74" y1="166" x2="74" y2="296" gradientUnits="userSpaceOnUse">
<stop stop-color="#1DE1BE"/>
<stop offset="1" stop-color="#070A4E" stop-opacity="0.92"/>
</linearGradient>
<linearGradient id="paint1_linear_235_366" x1="166.427" y1="130.896" x2="255.255" y2="161.646" gradientUnits="userSpaceOnUse">
<stop stop-color="#1DE1BE"/>
<stop offset="1" stop-color="#070A4E" stop-opacity="0.92"/>
</linearGradient>
<linearGradient id="paint2_linear_235_366" x1="322.5" y1="28" x2="322.5" y2="152" gradientUnits="userSpaceOnUse">
<stop stop-color="#1DE1BE"/>
<stop offset="1" stop-color="#070A4E" stop-opacity="0.92"/>
</linearGradient>
<linearGradient id="paint3_linear_235_366" x1="304.5" y1="181" x2="304.5" y2="370" gradientUnits="userSpaceOnUse">
<stop stop-color="#1DE1BE"/>
<stop offset="1" stop-color="#070A4E" stop-opacity="0.92"/>
</linearGradient>
<linearGradient id="paint4_linear_235_366" x1="88.5" y1="0" x2="88.5" y2="124" gradientUnits="userSpaceOnUse">
<stop stop-color="#1DE1BE"/>
<stop offset="1" stop-color="#070A4E" stop-opacity="0.92"/>
</linearGradient>
</defs>
</svg>
