<svg width="443" height="460" viewBox="0 0 443 460" fill="none" xmlns="http://www.w3.org/2000/svg">
<g style="mix-blend-mode:soft-light" opacity="0.38">
<path fill-rule="evenodd" clip-rule="evenodd" d="M349.485 288.017C364.947 288.668 373.332 306.681 384.031 317.878C392.184 326.41 396.499 337.406 404.745 345.847C416.477 357.858 439.263 361.322 442.561 377.795C445.663 393.29 431.742 408.499 419.212 418.106C407.849 426.818 390.298 419.924 378.019 427.283C365.42 434.834 364.064 458.142 349.485 459.895C335.562 461.569 328.099 442.837 316.7 434.657C306.599 427.408 292.752 424.953 286.125 414.426C279.443 403.811 281.292 390.337 280.904 377.795C280.506 364.89 277.923 351.314 283.822 339.833C289.798 328.199 302.956 322.991 313.218 314.894C325.236 305.411 334.199 287.373 349.485 288.017Z" fill="url(#paint0_linear_235_321)"/>
</g>
<g style="mix-blend-mode:soft-light" opacity="0.38">
<path fill-rule="evenodd" clip-rule="evenodd" d="M175.472 46.1977C192.697 35.7214 210.67 16.7743 229.798 23.1929C249.011 29.6401 245.71 59.837 259.753 74.479C277.198 92.6682 316.21 92.1899 319.894 117.131C323.42 141.007 291.885 154.542 273.954 170.628C260.21 182.958 244.411 190.523 228.214 199.377C207.851 210.508 189.002 236.805 167.117 229.029C144.968 221.159 149.962 186.742 137.13 167.013C125.706 149.449 95.8823 141.799 96.7654 120.869C97.6609 99.6466 125.533 91.846 140.917 77.2505C152.434 66.3243 161.912 54.4445 175.472 46.1977Z" fill="url(#paint1_linear_235_321)"/>
</g>
<g style="mix-blend-mode:soft-light" opacity="0.38">
<path fill-rule="evenodd" clip-rule="evenodd" d="M58.2715 334.527C73.2293 334.144 89.5979 317.571 101.367 326.784C113.287 336.115 102.401 355.946 104.713 370.88C106.488 382.348 116.774 392.678 113.282 403.747C109.785 414.831 95.5048 417.538 87.369 425.857C76.6499 436.818 73.6242 460.215 58.2715 459.999C42.834 459.78 40.8863 435.723 29.7674 425.043C20.9959 416.618 4.20202 416.21 0.604356 404.608C-2.9963 392.996 10.5616 383.179 13.0995 371.291C16.1317 357.089 5.47461 338.134 16.7565 328.953C27.8451 319.928 43.9627 334.894 58.2715 334.527Z" fill="url(#paint2_linear_235_321)"/>
</g>
<defs>
<linearGradient id="paint0_linear_235_321" x1="361.5" y1="288" x2="361.5" y2="460" gradientUnits="userSpaceOnUse">
<stop offset="0.328125" stop-color="#AA3C35"/>
<stop offset="1" stop-color="#EB6F15"/>
</linearGradient>
<linearGradient id="paint1_linear_235_321" x1="142" y1="265" x2="362" y2="138" gradientUnits="userSpaceOnUse">
<stop offset="0.328125" stop-color="#AA3C35"/>
<stop offset="1" stop-color="#EB6F15"/>
</linearGradient>
<linearGradient id="paint2_linear_235_321" x1="57" y1="324" x2="57" y2="460" gradientUnits="userSpaceOnUse">
<stop offset="0.328125" stop-color="#AA3C35"/>
<stop offset="1" stop-color="#EB6F15"/>
</linearGradient>
</defs>
</svg>
