<svg width="897" height="456" viewBox="0 0 897 456" fill="none" xmlns="http://www.w3.org/2000/svg">
<g opacity="0.36">
<path fill-rule="evenodd" clip-rule="evenodd" d="M66.0659 54.8169L78.5191 75.5799C90.9723 96.3429 116.57 137.869 141.477 150.327C166.383 162.785 191.981 146.174 216.888 146.174C242.486 146.174 267.392 162.785 292.299 158.632C317.897 154.479 342.803 129.564 367.71 129.564C393.308 129.564 418.214 154.479 443.121 154.479C468.719 154.479 493.625 129.564 519.223 112.953C544.13 96.3429 569.036 88.0377 594.634 104.648C619.541 121.259 644.447 162.785 670.045 196.005C694.952 229.226 719.858 254.142 745.456 237.532C770.362 220.921 795.961 162.785 820.867 150.327C845.773 137.869 871.372 171.09 883.825 187.7L896.278 204.311V279.058H883.825C871.372 279.058 845.773 279.058 820.867 279.058C795.961 279.058 770.362 279.058 745.456 279.058C719.858 279.058 694.952 279.058 670.045 279.058C644.447 279.058 619.541 279.058 594.634 279.058C569.036 279.058 544.13 279.058 519.223 279.058C493.625 279.058 468.719 279.058 443.121 279.058C418.214 279.058 393.308 279.058 367.71 279.058C342.803 279.058 317.897 279.058 292.299 279.058C267.392 279.058 242.486 279.058 216.888 279.058C191.981 279.058 166.383 279.058 141.477 279.058C116.57 279.058 90.9723 279.058 78.5191 279.058H66.0659V54.8169Z" fill="#8FD9B6"/>
<path fill-rule="evenodd" clip-rule="evenodd" d="M25.8824 268.004L39.2895 257.386C52.1727 246.916 78.463 225.828 104.753 204.74C131.567 183.505 157.858 162.417 184.148 141.33C210.438 120.242 236.729 99.1539 273.721 116.172C310.714 133.191 358.933 188.169 396.817 208.363C434.702 228.557 462.776 213.82 485.499 180.03C508.222 146.24 525.593 93.3967 550.624 65.8107C575.13 38.3718 606.772 36.3371 622.331 35.3934L638.413 34.3024L675.872 167.675L660.681 291.574C646.014 295.693 616.156 304.079 586.298 312.464C555.917 320.997 466.703 331.564 436.845 339.95C406.988 348.336 363.97 321.257 334.112 329.642C304.254 338.028 296.176 310.673 266.318 319.059C236.46 327.445 256.815 285.369 226.958 293.755C197.1 302.141 167.242 310.526 136.861 319.059C107.003 327.445 77.145 335.831 62.478 339.95L47.2872 344.216L25.8824 268.004Z" fill="#38DBFF"/>
</g>
</svg>
