<svg width="53" height="47" viewBox="0 0 53 47" fill="none" xmlns="http://www.w3.org/2000/svg">
<g clip-path="url(#clip0_250_591)">
<path opacity="0.5" d="M38.8161 26.4227C38.2473 26.2202 37.838 25.6877 37.838 25.0352C37.838 24.3752 37.838 23.4902 37.838 22.5002C37.838 17.4677 34.0644 13.3877 29.4099 13.3877C28.8202 13.3877 28.2376 13.4552 27.6826 13.5827C31.5048 14.4452 34.3835 18.1052 34.3835 22.5002C34.3835 23.4902 34.3835 24.3752 34.3835 25.0352C34.3835 25.6802 34.7928 26.2127 35.3616 26.4227C36.6934 26.9027 37.6299 28.3277 37.4912 29.9627C37.3386 31.7102 35.8818 33.0002 34.2517 33.0002C35.6807 33.0002 36.9015 33.0002 37.7062 33.0002C39.3363 33.0002 40.7861 31.7102 40.9457 29.9552C41.0913 28.3202 40.1549 26.8952 38.8161 26.4227Z" fill="#FFD68D"/>
<path d="M33.3152 34.875C33.3152 37.155 31.6088 39 29.5 39C27.3913 39 25.6848 37.155 25.6848 34.875" fill="url(#paint0_linear_250_591)"/>
<path d="M37.8379 25.0352C37.8379 24.3752 37.8379 23.4902 37.8379 22.5002C37.8379 17.4677 34.0643 13.3877 29.4098 13.3877C24.7622 13.3877 20.9886 17.4677 20.9886 22.5002V25.3727C20.9886 26.0252 20.5862 26.5802 20.0174 26.7977C18.7827 27.2627 17.9225 28.5977 18.0543 30.1202C18.2 31.7852 19.5735 33.0002 21.1134 33.0002C24.3113 33.0002 34.4389 33.0002 37.713 33.0002C39.3432 33.0002 40.793 31.7102 40.9525 29.9552C41.0982 28.3202 40.1617 26.8952 38.8229 26.4152C38.2472 26.2202 37.8379 25.6802 37.8379 25.0352Z" stroke="black" stroke-width="3" stroke-miterlimit="10"/>
<path d="M27.96 13.1777C27.9461 13.0952 27.9392 13.0202 27.9392 12.9377C27.9392 12.0077 28.6398 11.2502 29.4999 11.2502C30.3601 11.2502 31.0607 12.0077 31.0607 12.9377C31.0607 13.0277 31.0468 13.1177 31.033 13.2077C31.7266 13.3652 32.3856 13.6202 33.003 13.9502C33.0862 13.6202 33.1417 13.2902 33.1417 12.9302C33.1417 10.7627 31.5047 8.99268 29.4999 8.99268C27.4952 8.99268 25.8582 10.7627 25.8582 12.9302C25.8582 13.2527 25.9067 13.5677 25.9761 13.8677C26.6004 13.5527 27.2663 13.3202 27.96 13.1777Z" fill="black"/>
<path d="M29.1531 16.875C26.6143 16.875 24.5541 19.1025 24.5541 21.8475" stroke="black" stroke-width="3" stroke-miterlimit="10" stroke-linecap="round"/>
</g>
<defs>
<linearGradient id="paint0_linear_250_591" x1="26.0278" y1="36.75" x2="28.0893" y2="33.5773" gradientUnits="userSpaceOnUse">
<stop stop-color="#FFAB03"/>
<stop offset="1" stop-color="#FFCA27"/>
</linearGradient>
<clipPath id="clip0_250_591">
<rect width="25" height="30" fill="white" transform="translate(17 9)"/>
</clipPath>
</defs>
</svg>
