<svg width="43" height="42" viewBox="0 0 43 42" fill="none" xmlns="http://www.w3.org/2000/svg">
<path d="M18.875 22.7499H17.125C15.6725 22.7499 14.5 21.5774 14.5 20.1249C14.5 18.6724 15.6725 17.4999 17.125 17.4999H18.875V15.7499C18.875 14.2974 20.0475 13.1249 21.5 13.1249C22.9525 13.1249 24.125 14.2974 24.125 15.7499V17.4999H25.875C27.3275 17.4999 28.5 18.6724 28.5 20.1249C28.5 21.5774 27.3275 22.7499 25.875 22.7499H24.125V24.4999C24.125 25.9524 22.9525 27.1249 21.5 27.1249C20.0475 27.1249 18.875 25.9524 18.875 24.4999V22.7499ZM20.275 3.95487L9.775 7.89237C8.41 8.41737 7.5 9.71237 7.5 11.1824V19.4074C7.5 28.2449 13.4675 36.4874 21.5 38.4999C29.5325 36.4874 35.5 28.2449 35.5 19.4074V11.1824C35.4988 10.4702 35.2803 9.7754 34.8738 9.19067C34.4673 8.60594 33.8921 8.15912 33.225 7.90987L22.725 3.97237C21.9375 3.65737 21.0625 3.65737 20.275 3.95487Z" fill="#45B3CB"/>
</svg>
