<svg width="53" height="54" viewBox="0 0 53 54" fill="none" xmlns="http://www.w3.org/2000/svg">
<path d="M18.1596 1.5154C18.3149 0.816995 19.132 0.502903 19.7151 0.917465L32.8115 10.2281C33.0074 10.3673 33.2469 10.4314 33.4861 10.4085L49.4818 8.87899C50.194 8.81089 50.7453 9.49097 50.5312 10.1737L45.7233 25.5062C45.6514 25.7355 45.6644 25.9831 45.7601 26.2035L52.1577 40.9437C52.4426 41.6 51.9661 42.3344 51.2507 42.3418L35.1829 42.5072C34.9426 42.5097 34.7112 42.5986 34.5311 42.7578L22.4893 53.3972C21.9531 53.8709 21.1074 53.6447 20.8793 52.9666L15.7568 37.7363C15.6802 37.5085 15.5241 37.3159 15.3171 37.1938L1.47725 29.0292C0.861024 28.6656 0.814813 27.7914 1.38928 27.3649L14.2912 17.7867C14.4842 17.6434 14.6191 17.4355 14.6713 17.2009L18.1596 1.5154Z" fill="url(#paint0_linear_235_373)"/>
<defs>
<linearGradient id="paint0_linear_235_373" x1="18.4867" y1="0.0441647" x2="39.0195" y2="53.4616" gradientUnits="userSpaceOnUse">
<stop stop-color="#F8C820"/>
<stop offset="1" stop-color="#EB872B"/>
</linearGradient>
</defs>
</svg>
