<svg width="21" height="17" viewBox="0 0 21 17" fill="none" xmlns="http://www.w3.org/2000/svg">
<path d="M20.4728 16.5974C20.2171 16.7997 19.911 16.9008 19.5543 16.9008C19.1977 16.9008 18.8915 16.7997 18.6358 16.5974L14.6388 13.4351C13.0239 14.3827 11.2205 14.8565 9.22876 14.8565C8.00409 14.8565 6.83326 14.6675 5.71625 14.2896C4.59925 13.9116 3.63701 13.4032 2.82953 12.7643C2.02206 12.1255 1.37945 11.3669 0.901691 10.4885C0.423936 9.61006 0.185059 8.68375 0.185059 7.70952C0.185059 6.73529 0.423936 5.80631 0.901691 4.92258C1.37945 4.03885 2.02206 3.28023 2.82953 2.64671C3.63701 2.0132 4.59925 1.50745 5.71625 1.12947C6.83326 0.75149 8.00409 0.5625 9.22876 0.5625C10.4534 0.5625 11.6243 0.75149 12.7413 1.12947C13.8583 1.50745 14.8205 2.0132 15.628 2.64671C16.4355 3.28023 17.0781 4.03885 17.5558 4.92258C18.0336 5.80631 18.2725 6.73262 18.2725 7.70153C18.2725 9.28798 17.6736 10.7147 16.4758 11.9818L20.4728 15.144C20.7285 15.3463 20.8564 15.5885 20.8564 15.8707C20.8564 16.1528 20.7285 16.3951 20.4728 16.5974ZM9.22876 2.60679C8.05792 2.60679 6.97793 2.83304 5.98877 3.28555C4.99962 3.73806 4.2157 4.35827 3.63701 5.14617C3.05832 5.93407 2.76897 6.78852 2.76897 7.70952C2.76897 8.63051 3.05832 9.48496 3.63701 10.2729C4.2157 11.0608 4.99962 11.681 5.98877 12.1335C6.97793 12.586 8.05792 12.8122 9.22876 12.8122C10.3996 12.8122 11.4796 12.586 12.4687 12.1335C13.4579 11.681 14.2418 11.0608 14.8205 10.2729C15.3992 9.48496 15.6885 8.63051 15.6885 7.70952C15.6885 6.78852 15.3992 5.93407 14.8205 5.14617C14.2418 4.35827 13.4579 3.73806 12.4687 3.28555C11.4796 2.83304 10.3996 2.60679 9.22876 2.60679Z" fill="#A296A3"/>
</svg>
