<svg width="47" height="47" viewBox="0 0 47 47" fill="none" xmlns="http://www.w3.org/2000/svg">
<path d="M23.5 0C10.5276 0 0 10.5276 0 23.5C0 36.4724 10.5276 47 23.5 47C36.4724 47 47 36.4724 47 23.5C47 10.5276 36.4724 0 23.5 0ZM33.0421 34.5772C32.6442 34.5772 32.3978 34.454 32.0282 34.2361C26.1153 30.6732 19.2359 30.5216 12.4417 31.9145C12.0722 32.0093 11.5889 32.1609 11.3141 32.1609C10.395 32.1609 9.81694 31.4312 9.81694 30.6637C9.81694 29.6877 10.395 29.2234 11.1056 29.0718C18.8663 27.3567 26.7976 27.5083 33.5633 31.5544C34.1413 31.924 34.4825 32.2556 34.4825 33.1179C34.4825 33.9802 33.8097 34.5772 33.0421 34.5772ZM35.5911 28.3611C35.0984 28.3611 34.7667 28.1431 34.4256 27.9631C28.5032 24.4571 19.6718 23.0452 11.8163 25.1772C11.3615 25.3004 11.1151 25.4236 10.6887 25.4236C9.6748 25.4236 8.8504 24.5992 8.8504 23.5853C8.8504 22.5714 9.34314 21.8986 10.3192 21.6238C12.9534 20.8847 15.6446 20.3351 19.5865 20.3351C25.7363 20.3351 31.6776 21.8607 36.3587 24.6466C37.1262 25.1014 37.4294 25.6889 37.4294 26.5133C37.42 27.5367 36.624 28.3611 35.5911 28.3611ZM38.5286 21.1405C38.0359 21.1405 37.7327 21.0173 37.3063 20.771C30.5595 16.7437 18.4968 15.7772 10.6887 17.9567C10.3476 18.0514 9.92117 18.203 9.46633 18.203C8.21552 18.203 7.25847 17.227 7.25847 15.9667C7.25847 14.678 8.05444 13.9484 8.90726 13.702C12.2427 12.726 15.9762 12.2617 20.0413 12.2617C26.9587 12.2617 34.2077 13.702 39.5046 16.7911C40.2437 17.2175 40.727 17.805 40.727 18.9327C40.727 20.2214 39.6847 21.1405 38.5286 21.1405Z" fill="#7B3D04"/>
</svg>
